<?xml version="1.0" encoding="UTF-8"?>
<svg width="1024" height="1024" viewBox="-1 -1 34 34" xmlns="http://www.w3.org/2000/svg">
  <!-- Background circle for better visibility -->
  <circle cx="16" cy="16" r="17" fill="#0f172a"/>

  <g stroke="#0ea5e9" stroke-width="2" fill="#20b7a3">
    <!-- Center circle -->
    <path d="m 12.8,11.52 c -1.414,0 -2.56,1.146 -2.56,2.56 0,1.414 1.146,2.56 2.56,2.56 1.414,0 2.56,-1.146 2.56,-2.56 0,-1.414 -1.146,-2.56 -2.56,-2.56 z m 0,4.62 c -1.136,0 -2.06,-0.924 -2.06,-2.06 0,-1.136 0.924,-2.06 2.06,-2.06 1.136,0 2.06,0.924 2.06,2.06 0,1.136 -0.924,2.06 -2.06,2.06 z"/>

    <!-- Top-left small circle with line -->
    <path d="m 4.274,2.993 c -1.06,0 -1.92,0.86 -1.92,1.92 0,1.06 0.86,1.92 1.92,1.92 0.462,0 0.88,-0.17 1.211,-0.442 L 8.964,9.736 9.31,9.375 5.83,6.03 C 6.057,5.715 6.193,5.331 6.193,4.913 6.194,3.853 5.334,2.993 4.274,2.993 Z m 0,3.34 c -0.783,0 -1.42,-0.637 -1.42,-1.42 0,-0.783 0.637,-1.42 1.42,-1.42 0.783,0 1.42,0.637 1.42,1.42 0,0.783 -0.637,1.42 -1.42,1.42 z"/>

    <!-- Bottom-right large circle with line -->
    <path d="m 27.52,23.04 c -1.474,0 -2.771,0.721 -3.587,1.82 l -7.117,-7.117 -0.354,0.354 7.193,7.193 c -0.381,0.659 -0.616,1.414 -0.616,2.23 0,2.474 2.006,4.48 4.48,4.48 C 29.993,32 32,29.994 32,27.52 32,25.046 29.994,23.04 27.52,23.04 Z m 0,8.46 c -2.195,0 -3.98,-1.785 -3.98,-3.98 0,-2.195 1.785,-3.98 3.98,-3.98 2.195,0 3.98,1.785 3.98,3.98 0,2.195 -1.785,3.98 -3.98,3.98 z"/>

    <!-- Bottom-left circle with line -->
    <path d="m 3.2,25.6 c 1.767,0 3.2,-1.433 3.2,-3.2 0,-0.778 -0.289,-1.481 -0.75,-2.036 L 8.348,18.113 8.028,17.728 5.3,20.003 C 4.737,19.509 4.008,19.2 3.2,19.2 1.433,19.2 0,20.633 0,22.4 c 0,1.767 1.433,3.2 3.2,3.2 z m 0,-5.9 c 1.489,0 2.7,1.211 2.7,2.7 0,1.489 -1.211,2.7 -2.7,2.7 -1.489,0 -2.7,-1.211 -2.7,-2.7 0,-1.489 1.211,-2.7 2.7,-2.7 z"/>

    <!-- Top-right circle with line -->
    <path d="m 17.166,9.758 4.542,-4.055 c 0.545,0.43 1.224,0.697 1.972,0.697 1.767,0 3.2,-1.433 3.2,-3.2 0,-1.767 -1.433,-3.2 -3.2,-3.2 -1.767,0 -3.2,1.433 -3.2,3.2 0,0.838 0.329,1.595 0.857,2.165 l -4.503,4.02 z M 23.68,0.5 c 1.489,0 2.7,1.211 2.7,2.7 0,1.489 -1.211,2.7 -2.7,2.7 -1.489,0 -2.7,-1.211 -2.7,-2.7 0,-1.489 1.211,-2.7 2.7,-2.7 z"/>
  </g>
</svg>
